<svg width="358" height="51" viewBox="0 0 358 51" fill="none" xmlns="http://www.w3.org/2000/svg">
<rect width="358" height="50.152" rx="2" fill="black"/>
<path d="M147.117 32.179C146.274 32.179 145.521 32.0341 144.861 31.7443C144.205 31.4545 143.683 31.0518 143.295 30.5362C142.911 30.0163 142.703 29.4134 142.668 28.7273H144.279C144.313 29.1491 144.458 29.5135 144.714 29.8203C144.97 30.1229 145.304 30.3572 145.717 30.5234C146.131 30.6896 146.589 30.7727 147.092 30.7727C147.654 30.7727 148.153 30.6747 148.587 30.4787C149.022 30.2827 149.363 30.0099 149.61 29.6605C149.857 29.3111 149.981 28.9062 149.981 28.446C149.981 27.9645 149.862 27.5405 149.623 27.174C149.384 26.8033 149.035 26.5135 148.575 26.3047C148.114 26.0959 147.552 25.9915 146.887 25.9915H145.839V24.5852H146.887C147.407 24.5852 147.863 24.4915 148.255 24.304C148.651 24.1165 148.96 23.8523 149.182 23.5114C149.408 23.1705 149.521 22.7699 149.521 22.3097C149.521 21.8665 149.423 21.4808 149.227 21.1527C149.031 20.8246 148.754 20.5689 148.396 20.3857C148.042 20.2024 147.624 20.1108 147.143 20.1108C146.691 20.1108 146.265 20.1939 145.864 20.3601C145.468 20.522 145.144 20.7585 144.893 21.0696C144.641 21.3764 144.505 21.7472 144.484 22.1818H142.95C142.975 21.4957 143.182 20.8949 143.57 20.3793C143.957 19.8594 144.465 19.4545 145.091 19.1648C145.722 18.875 146.414 18.7301 147.168 18.7301C147.978 18.7301 148.673 18.8942 149.252 19.2223C149.832 19.5462 150.277 19.9744 150.588 20.5071C150.899 21.0398 151.055 21.6151 151.055 22.233C151.055 22.9702 150.861 23.5987 150.473 24.1186C150.09 24.6385 149.568 24.9986 148.907 25.1989V25.3011C149.734 25.4375 150.379 25.7891 150.844 26.3558C151.308 26.9183 151.541 27.6151 151.541 28.446C151.541 29.1577 151.347 29.7969 150.959 30.3636C150.575 30.9261 150.051 31.3693 149.386 31.6932C148.722 32.017 147.965 32.179 147.117 32.179ZM157.07 32.2301C156.448 32.2301 155.883 32.1129 155.376 31.8786C154.869 31.6399 154.466 31.2969 154.168 30.8494C153.869 30.3977 153.72 29.8523 153.72 29.2131C153.72 28.6506 153.831 28.1946 154.053 27.8452C154.274 27.4915 154.57 27.2145 154.941 27.0142C155.312 26.8139 155.721 26.6648 156.168 26.5668C156.62 26.4645 157.074 26.3835 157.53 26.3239C158.127 26.2472 158.61 26.1896 158.981 26.1513C159.356 26.1087 159.629 26.0384 159.799 25.9403C159.974 25.8423 160.061 25.6719 160.061 25.429V25.3778C160.061 24.7472 159.889 24.2571 159.543 23.9077C159.203 23.5582 158.685 23.3835 157.99 23.3835C157.27 23.3835 156.705 23.5412 156.296 23.8565C155.887 24.1719 155.6 24.5085 155.433 24.8665L154.002 24.3551C154.257 23.7585 154.598 23.294 155.024 22.9616C155.455 22.625 155.923 22.3906 156.43 22.2585C156.942 22.1222 157.445 22.054 157.939 22.054C158.254 22.054 158.617 22.0923 159.026 22.169C159.439 22.2415 159.837 22.3928 160.221 22.6229C160.609 22.853 160.93 23.2003 161.186 23.6648C161.442 24.1293 161.57 24.7514 161.57 25.5312V32H160.061V30.6705H159.984C159.882 30.8835 159.712 31.1115 159.473 31.3544C159.234 31.5973 158.917 31.804 158.521 31.9744C158.124 32.1449 157.641 32.2301 157.07 32.2301ZM157.3 30.875C157.896 30.875 158.399 30.7578 158.808 30.5234C159.222 30.2891 159.533 29.9865 159.742 29.6158C159.955 29.245 160.061 28.8551 160.061 28.446V27.0653C159.997 27.142 159.857 27.2124 159.639 27.2763C159.426 27.3359 159.179 27.3892 158.898 27.4361C158.621 27.4787 158.35 27.517 158.086 27.5511C157.826 27.581 157.615 27.6065 157.453 27.6278C157.061 27.679 156.695 27.7621 156.354 27.8771C156.017 27.9879 155.744 28.1562 155.536 28.3821C155.331 28.6037 155.229 28.9062 155.229 29.2898C155.229 29.8139 155.423 30.2102 155.81 30.4787C156.203 30.7429 156.699 30.875 157.3 30.875ZM164.323 32V22.1818H165.832V26.4517H166.829L170.357 22.1818H172.3L168.337 26.9119L172.351 32H170.408L167.187 27.858H165.832V32H164.323ZM173.991 35.6818V22.1818H175.448V23.7415H175.627C175.738 23.571 175.892 23.3537 176.088 23.0895C176.288 22.821 176.573 22.5824 176.944 22.3736C177.319 22.1605 177.826 22.054 178.465 22.054C179.292 22.054 180.021 22.2607 180.652 22.674C181.282 23.0874 181.774 23.6733 182.128 24.4318C182.482 25.1903 182.659 26.0852 182.659 27.1165C182.659 28.1562 182.482 29.0575 182.128 29.8203C181.774 30.5788 181.284 31.1669 180.658 31.5845C180.032 31.9979 179.309 32.2045 178.491 32.2045C177.86 32.2045 177.355 32.1001 176.976 31.8913C176.597 31.6783 176.305 31.4375 176.1 31.169C175.896 30.8963 175.738 30.6705 175.627 30.4915H175.5V35.6818H173.991ZM175.474 27.0909C175.474 27.8324 175.583 28.4865 175.8 29.0533C176.017 29.6158 176.335 30.0568 176.752 30.3764C177.17 30.6918 177.681 30.8494 178.286 30.8494C178.917 30.8494 179.443 30.6832 179.865 30.3509C180.291 30.0142 180.611 29.5625 180.824 28.9957C181.041 28.4247 181.15 27.7898 181.15 27.0909C181.15 26.4006 181.044 25.7784 180.831 25.2244C180.622 24.6662 180.304 24.2251 179.878 23.9013C179.456 23.5732 178.926 23.4091 178.286 23.4091C177.673 23.4091 177.157 23.5646 176.74 23.8757C176.322 24.1825 176.007 24.6129 175.794 25.1669C175.581 25.7166 175.474 26.358 175.474 27.0909ZM186.264 25.7358H189.076C190.227 25.7358 191.107 26.0277 191.716 26.6115C192.326 27.1953 192.63 27.9347 192.63 28.8295C192.63 29.4176 192.494 29.9524 192.221 30.4339C191.948 30.9112 191.548 31.2926 191.019 31.5781C190.491 31.8594 189.843 32 189.076 32H184.96V22.1818H186.468V30.5938H189.076C189.673 30.5938 190.163 30.4361 190.546 30.1207C190.93 29.8054 191.122 29.4006 191.122 28.9062C191.122 28.3864 190.93 27.9624 190.546 27.6342C190.163 27.3061 189.673 27.142 189.076 27.142H186.264V25.7358ZM194.19 32V22.1818H195.698V32H194.19ZM197.897 23.5881V22.1818H205.875V23.5881H202.653V32H201.144V23.5881H197.897ZM209.379 25.7358H212.191C213.342 25.7358 214.222 26.0277 214.831 26.6115C215.441 27.1953 215.745 27.9347 215.745 28.8295C215.745 29.4176 215.609 29.9524 215.336 30.4339C215.064 30.9112 214.663 31.2926 214.135 31.5781C213.606 31.8594 212.959 32 212.191 32H208.075V22.1818H209.584V30.5938H212.191C212.788 30.5938 213.278 30.4361 213.662 30.1207C214.045 29.8054 214.237 29.4006 214.237 28.9062C214.237 28.3864 214.045 27.9624 213.662 27.6342C213.278 27.3061 212.788 27.142 212.191 27.142H209.379V25.7358Z" fill="white"/>
</svg>
