<svg width="256" height="37" viewBox="0 0 256 37" fill="none" xmlns="http://www.w3.org/2000/svg">
<path d="M0.642046 1.09091H11.0909L19.9545 22.7045H20.3636L29.2273 1.09091H39.6761V36H31.4602V14.5568H31.1705L22.7841 35.7784H17.5341L9.14773 14.4375H8.85795V36H0.642046V1.09091ZM57.1605 36.4943C54.4105 36.4943 52.0469 35.9318 50.0696 34.8068C48.1037 33.6705 46.5866 32.0909 45.5185 30.0682C44.4616 28.0341 43.9332 25.6761 43.9332 22.9943C43.9332 20.3011 44.4616 17.9432 45.5185 15.9205C46.5866 13.8864 48.1037 12.3068 50.0696 11.1818C52.0469 10.0455 54.4105 9.47727 57.1605 9.47727C59.9105 9.47727 62.2685 10.0455 64.2344 11.1818C66.2116 12.3068 67.7287 13.8864 68.7855 15.9205C69.8537 17.9432 70.3878 20.3011 70.3878 22.9943C70.3878 25.6761 69.8537 28.0341 68.7855 30.0682C67.7287 32.0909 66.2116 33.6705 64.2344 34.8068C62.2685 35.9318 59.9105 36.4943 57.1605 36.4943ZM57.2116 30.2045C58.2116 30.2045 59.0582 29.8977 59.7514 29.2841C60.4446 28.6705 60.973 27.8182 61.3366 26.7273C61.7116 25.6364 61.8991 24.375 61.8991 22.9432C61.8991 21.4886 61.7116 20.2159 61.3366 19.125C60.973 18.0341 60.4446 17.1818 59.7514 16.5682C59.0582 15.9545 58.2116 15.6477 57.2116 15.6477C56.1776 15.6477 55.3026 15.9545 54.5866 16.5682C53.8821 17.1818 53.3423 18.0341 52.9673 19.125C52.6037 20.2159 52.4219 21.4886 52.4219 22.9432C52.4219 24.375 52.6037 25.6364 52.9673 26.7273C53.3423 27.8182 53.8821 28.6705 54.5866 29.2841C55.3026 29.8977 56.1776 30.2045 57.2116 30.2045ZM82.5497 25.2102L90.919 9.81818H98.9304V36H91.0384V20.5568L82.6861 36H74.6577V9.81818H82.5497V25.2102ZM121.639 9.81818L125.952 18.4432L130.418 9.81818H138.821L131.509 22.9091L139.094 36H130.759L125.952 27.3068L121.264 36H112.81L120.412 22.9091L113.185 9.81818H121.639ZM153.911 36.4943C151.161 36.4943 148.797 35.9318 146.82 34.8068C144.854 33.6705 143.337 32.0909 142.268 30.0682C141.212 28.0341 140.683 25.6761 140.683 22.9943C140.683 20.3011 141.212 17.9432 142.268 15.9205C143.337 13.8864 144.854 12.3068 146.82 11.1818C148.797 10.0455 151.161 9.47727 153.911 9.47727C156.661 9.47727 159.018 10.0455 160.984 11.1818C162.962 12.3068 164.479 13.8864 165.536 15.9205C166.604 17.9432 167.138 20.3011 167.138 22.9943C167.138 25.6761 166.604 28.0341 165.536 30.0682C164.479 32.0909 162.962 33.6705 160.984 34.8068C159.018 35.9318 156.661 36.4943 153.911 36.4943ZM153.962 30.2045C154.962 30.2045 155.808 29.8977 156.501 29.2841C157.195 28.6705 157.723 27.8182 158.087 26.7273C158.462 25.6364 158.649 24.375 158.649 22.9432C158.649 21.4886 158.462 20.2159 158.087 19.125C157.723 18.0341 157.195 17.1818 156.501 16.5682C155.808 15.9545 154.962 15.6477 153.962 15.6477C152.928 15.6477 152.053 15.9545 151.337 16.5682C150.632 17.1818 150.092 18.0341 149.717 19.125C149.354 20.2159 149.172 21.4886 149.172 22.9432C149.172 24.375 149.354 25.6364 149.717 26.7273C150.092 27.8182 150.632 28.6705 151.337 29.2841C152.053 29.8977 152.928 30.2045 153.962 30.2045ZM193.959 0.272727L196.209 5.77841C195.493 6.33523 194.709 6.75568 193.857 7.03977C193.016 7.32386 191.987 7.51704 190.771 7.61932C189.555 7.72159 188.021 7.77841 186.169 7.78977C184.078 7.80114 182.385 8.09091 181.089 8.65909C179.794 9.21591 178.811 10.1307 178.141 11.4034C177.482 12.6648 177.044 14.3466 176.828 16.4489H177.05C177.8 14.8693 178.868 13.625 180.254 12.7159C181.641 11.8068 183.43 11.3523 185.624 11.3523C187.908 11.3523 189.896 11.8466 191.589 12.8352C193.283 13.8125 194.589 15.2102 195.51 17.0284C196.43 18.8352 196.891 20.983 196.891 23.4716C196.891 26.108 196.362 28.4034 195.305 30.358C194.249 32.3125 192.737 33.8239 190.771 34.892C188.805 35.9602 186.453 36.4943 183.714 36.4943C180.976 36.4943 178.618 35.9375 176.641 34.8239C174.675 33.7102 173.158 32.0739 172.089 29.9148C171.033 27.7443 170.504 25.0795 170.504 21.9205V20.0114C170.504 13.5341 171.811 8.76705 174.425 5.71023C177.038 2.65341 180.857 1.11364 185.879 1.09091C187.141 1.07954 188.283 1.07954 189.305 1.09091C190.339 1.09091 191.243 1.03977 192.016 0.9375C192.788 0.823862 193.436 0.602271 193.959 0.272727ZM183.766 30.2045C184.72 30.2045 185.544 29.9489 186.237 29.4375C186.93 28.9261 187.464 28.1932 187.839 27.2386C188.214 26.2841 188.402 25.1364 188.402 23.7955C188.402 22.4545 188.209 21.3125 187.822 20.3693C187.447 19.4261 186.913 18.7102 186.22 18.2216C185.527 17.7216 184.703 17.4716 183.749 17.4716C183.021 17.4716 182.362 17.6136 181.771 17.8977C181.18 18.1705 180.68 18.5795 180.271 19.125C179.862 19.6591 179.55 20.3182 179.334 21.1023C179.118 21.8864 179.01 22.7841 179.01 23.7955C179.01 25.7955 179.43 27.3636 180.271 28.5C181.112 29.6364 182.277 30.2045 183.766 30.2045ZM223.818 0.272727L226.068 5.77841C225.352 6.33523 224.568 6.75568 223.716 7.03977C222.875 7.32386 221.847 7.51704 220.631 7.61932C219.415 7.72159 217.881 7.77841 216.028 7.78977C213.938 7.80114 212.244 8.09091 210.949 8.65909C209.653 9.21591 208.67 10.1307 208 11.4034C207.341 12.6648 206.903 14.3466 206.688 16.4489H206.909C207.659 14.8693 208.727 13.625 210.114 12.7159C211.5 11.8068 213.29 11.3523 215.483 11.3523C217.767 11.3523 219.756 11.8466 221.449 12.8352C223.142 13.8125 224.449 15.2102 225.369 17.0284C226.29 18.8352 226.75 20.983 226.75 23.4716C226.75 26.108 226.222 28.4034 225.165 30.358C224.108 32.3125 222.597 33.8239 220.631 34.892C218.665 35.9602 216.313 36.4943 213.574 36.4943C210.835 36.4943 208.477 35.9375 206.5 34.8239C204.534 33.7102 203.017 32.0739 201.949 29.9148C200.892 27.7443 200.364 25.0795 200.364 21.9205V20.0114C200.364 13.5341 201.67 8.76705 204.284 5.71023C206.898 2.65341 210.716 1.11364 215.739 1.09091C217 1.07954 218.142 1.07954 219.165 1.09091C220.199 1.09091 221.102 1.03977 221.875 0.9375C222.648 0.823862 223.295 0.602271 223.818 0.272727ZM213.625 30.2045C214.58 30.2045 215.403 29.9489 216.097 29.4375C216.79 28.9261 217.324 28.1932 217.699 27.2386C218.074 26.2841 218.261 25.1364 218.261 23.7955C218.261 22.4545 218.068 21.3125 217.682 20.3693C217.307 19.4261 216.773 18.7102 216.08 18.2216C215.386 17.7216 214.563 17.4716 213.608 17.4716C212.881 17.4716 212.222 17.6136 211.631 17.8977C211.04 18.1705 210.54 18.5795 210.131 19.125C209.722 19.6591 209.409 20.3182 209.193 21.1023C208.977 21.8864 208.869 22.7841 208.869 23.7955C208.869 25.7955 209.29 27.3636 210.131 28.5C210.972 29.6364 212.136 30.2045 213.625 30.2045ZM239.018 25.2102L247.388 9.81818H255.399V36H247.507V20.5568L239.155 36H231.126V9.81818H239.018V25.2102Z" fill="bisque"/>
</svg>
