<svg xmlns="http://www.w3.org/2000/svg" xmlns:xlink="http://www.w3.org/1999/xlink" viewBox="0 0 230 68" preserveAspectRatio="xMidYMid" style="display: block; shape-rendering: auto; background: transparent;" width="230" height="68"><style type="text/css">
  .ld-text text {
    text-anchor: middle;
    dominant-baseline: middle;
    font-size: 32px;
    opacity: 0;
    user-select: none;
    pointer-events: none;
  }
</style>
<g style="transform-origin:115px 34px;transform:scale(1)" class="ld-text">
<g transform="translate(115,34)">
  <g transform="scale(0.4000) translate(0,0)"><g class="path" style="opacity: 1; animation: 1.81818s linear -1.12s infinite normal forwards running animate-cm9q6dtukvw; transform-box: view-box; transform-origin: -244.32px -3.69px;"><path d="M7.04 47.18L7.04-7.38L40.48-7.38L40.48-1.22L13.76-1.22L13.76 16.22L38.56 16.22L38.56 22.22L13.76 22.22L13.76 47.18L7.04 47.18" style="fill: rgb(255, 174, 201);" transform="translate(-268.080,-23.589)"></path></g><g class="path" style="opacity: 1; animation: 1.81818s linear -1.04s infinite normal forwards running animate-cm9q6dtukvw; transform-box: view-box; transform-origin: -215.84px 3.07px;"><path d="M49.04 47.18L49.04 6.86L55.44 6.14L55.44 47.18L49.04 47.18" style="fill: rgb(255, 124, 201);" transform="translate(-268.080,-23.589)"></path></g><g class="path" style="opacity: 1; animation: 1.81818s linear -0.96s infinite normal forwards running animate-cm9q6dtukvw; transform-box: view-box; transform-origin: -215.64px -28.17px;"><path d="M48-4.58L48-4.58Q48-6.42 49.24-7.66Q50.48-8.90 52.32-8.90L52.32-8.90Q54.24-8.90 55.56-7.66Q56.88-6.42 56.88-4.58L56.88-4.58Q56.88-2.74 55.56-1.50Q54.24-0.26 52.32-0.26L52.32-0.26Q50.48-0.26 49.24-1.50Q48-2.74 48-4.58" style="fill: rgb(255, 64, 201);" transform="translate(-268.080,-23.589)"></path></g><g class="path" style="opacity: 1; animation: 1.81818s linear -0.88s infinite normal forwards running animate-cm9q6dtukvw; transform-box: view-box; transform-origin: -197.92px -6.73px;"><path d="M66.96 47.18L66.96-12.74L73.36-13.46L73.36 47.18L66.96 47.18" style="fill: rgb(255, 40, 201);" transform="translate(-268.080,-23.589)"></path></g><g class="path" style="opacity: 1; animation: 1.81818s linear -0.8s infinite normal forwards running animate-cm9q6dtukvw; transform-box: view-box; transform-origin: -166px 3.59px;"><path d="M89.44 27.26L89.44 27.26Q89.44 35.02 92.92 38.82Q96.40 42.62 102.32 42.62L102.32 42.62Q108.16 42.62 111.44 38.86Q114.72 35.10 114.72 27.58L114.72 27.58Q114.72 19.58 111.24 15.66Q107.76 11.74 101.76 11.74L101.76 11.74Q95.76 11.74 92.60 15.62Q89.44 19.50 89.44 27.26 zM82.64 27.18L82.64 27.18Q82.64 21.10 84.56 17.06Q86.48 13.02 89.44 10.58Q92.40 8.14 95.80 7.14Q99.20 6.14 102.24 6.14L102.24 6.14Q105.12 6.14 108.52 7.06Q111.92 7.98 114.80 10.34Q117.68 12.70 119.60 16.66Q121.52 20.62 121.52 26.70L121.52 26.70Q121.52 33.02 119.56 37.18Q117.60 41.34 114.64 43.78Q111.68 46.22 108.24 47.22Q104.80 48.22 101.84 48.22L101.84 48.22Q98.80 48.22 95.44 47.26Q92.08 46.30 89.24 43.94Q86.40 41.58 84.52 37.50Q82.64 33.42 82.64 27.18" style="fill: rgb(255, 0, 167);" transform="translate(-268.080,-23.589)"></path></g><g class="path" style="opacity: 1; animation: 1.81818s linear -0.72s infinite normal forwards running animate-cm9q6dtukvw; transform-box: view-box; transform-origin: -121.2px 3.07px;"><path d="M130.88 47.18L130.88 14.94Q130.96 13.26 130.48 7.66L130.48 7.66L136.40 6.86L137.28 11.98Q139.68 10.38 142.04 9.18Q144.40 7.98 146.88 7.06Q149.36 6.14 151.68 6.14L151.68 6.14Q154.96 6.14 157.16 6.90Q159.36 7.66 160.72 9.42Q162.08 11.18 162.68 14.06Q163.28 16.94 163.28 21.26L163.28 21.26L163.28 47.18L156.88 47.18L156.88 21.98Q156.88 19.58 156.80 17.70Q156.72 15.82 156.12 14.50Q155.52 13.18 154.28 12.46Q153.04 11.74 150.80 11.74L150.80 11.74Q148.72 11.74 146.40 12.66Q144.08 13.58 141.84 14.78Q139.60 15.98 137.28 17.58L137.28 17.58L137.28 47.18L130.88 47.18" style="fill: rgb(255, 174, 201);" transform="translate(-268.080,-23.589)"></path></g><g class="path" style="opacity: 1; animation: 1.81818s linear -0.64s infinite normal forwards running animate-cm9q6dtukvw; transform-box: view-box; transform-origin: -76.32px 3.59px;"><path d="M179.12 27.26L179.12 27.26Q179.12 35.02 182.60 38.82Q186.08 42.62 192 42.62L192 42.62Q197.84 42.62 201.12 38.86Q204.40 35.10 204.40 27.58L204.40 27.58Q204.40 19.58 200.92 15.66Q197.44 11.74 191.44 11.74L191.44 11.74Q185.44 11.74 182.28 15.62Q179.12 19.50 179.12 27.26 zM172.32 27.18L172.32 27.18Q172.32 21.10 174.24 17.06Q176.16 13.02 179.12 10.58Q182.08 8.14 185.48 7.14Q188.88 6.14 191.92 6.14L191.92 6.14Q194.80 6.14 198.20 7.06Q201.60 7.98 204.48 10.34Q207.36 12.70 209.28 16.66Q211.20 20.62 211.20 26.70L211.20 26.70Q211.20 33.02 209.24 37.18Q207.28 41.34 204.32 43.78Q201.36 46.22 197.92 47.22Q194.48 48.22 191.52 48.22L191.52 48.22Q188.48 48.22 185.12 47.26Q181.76 46.30 178.92 43.94Q176.08 41.58 174.20 37.50Q172.32 33.42 172.32 27.18" style="fill: rgb(255, 124, 201);" transform="translate(-268.080,-23.589)"></path></g><g class="path" style="opacity: 1; animation: 1.81818s linear -0.56s infinite normal forwards running animate-cm9q6dtukvw; transform-box: view-box; transform-origin: -34.08px 3.47px;"><path d="M230 47.18L215.20 6.94L222.24 6.94L232 35.34L233.76 41.66L233.84 41.66L235.68 35.34L246.08 6.94L252.80 6.94L237.20 47.18L230 47.18" style="fill: rgb(255, 64, 201);" transform="translate(-268.080,-23.589)"></path></g><g class="path" style="opacity: 1; animation: 1.81818s linear -0.48s infinite normal forwards running animate-cm9q6dtukvw; transform-box: view-box; transform-origin: 3.76px 3.59px;"><path d="M281.28 37.82L281.28 28.70Q279.68 28.78 278.24 28.86Q276.80 28.94 275.40 29.06Q274 29.18 272.88 29.34L272.88 29.34Q267.12 30.06 264.72 31.86Q262.32 33.66 262.32 37.02L262.32 37.02Q262.32 39.82 264.04 41.22Q265.76 42.62 268.56 42.62L268.56 42.62Q272.40 42.62 275.40 41.30Q278.40 39.98 281.28 37.82L281.28 37.82 zM282 47.82L281.20 43.42Q277.44 45.58 274.20 46.90Q270.96 48.22 267.20 48.22L267.20 48.22Q261.84 48.22 258.68 45.62Q255.52 43.02 255.52 37.02L255.52 37.02Q255.52 33.90 257.12 31.58Q258.72 29.26 261.32 27.70Q263.92 26.14 267.20 25.26Q270.48 24.38 273.92 24.14L273.92 24.14Q275.36 23.98 277.68 23.86Q280 23.74 281.28 23.66L281.28 23.66Q281.28 20.86 281.12 18.66Q280.96 16.46 280.16 14.90Q279.36 13.34 277.80 12.54Q276.24 11.74 273.36 11.74L273.36 11.74Q271.04 11.74 268.88 12.02Q266.72 12.30 265.04 12.62L265.04 12.62Q263.04 13.02 261.36 13.50L261.36 13.50L260.08 7.98Q262.08 7.50 264.40 7.10L264.40 7.10Q266.40 6.70 269.04 6.42Q271.68 6.14 274.72 6.14L274.72 6.14Q278.80 6.14 281.32 7.34Q283.84 8.54 285.24 10.58Q286.64 12.62 287.16 15.22Q287.68 17.82 287.68 20.70L287.68 20.70L287.68 39.90Q287.68 41.02 287.72 42.26Q287.76 43.50 287.88 44.70Q288 45.90 288.16 47.18L288.16 47.18L282 47.82" style="fill: rgb(255, 40, 201);" transform="translate(-268.080,-23.589)"></path></g><g class="path" style="opacity: 1; animation: 1.81818s linear -0.4s infinite normal forwards running animate-cm9q6dtukvw; transform-box: view-box; transform-origin: 71.04px -3.69px;"><path d="M318.56 47.18L318.56-7.38L324.96-7.38L353.60 35.90L353.76 35.90Q353.60 33.58 353.52 30.94L353.52 30.94Q353.36 28.70 353.32 25.78Q353.28 22.86 353.28 19.82L353.28 19.82L353.28-7.38L359.68-7.38L359.68 47.18L353.28 47.18L324.64 3.74L324.48 3.74Q324.56 6.14 324.72 8.78L324.72 8.78Q324.80 11.10 324.88 13.98Q324.96 16.86 324.96 19.90L324.96 19.90L324.96 47.18L318.56 47.18" style="fill: rgb(255, 0, 167);" transform="translate(-268.080,-23.589)"></path></g><g class="path" style="opacity: 1; animation: 1.81818s linear -0.32s infinite normal forwards running animate-cm9q6dtukvw; transform-box: view-box; transform-origin: 116.88px 3.59px;"><path d="M394.40 37.82L394.40 28.70Q392.80 28.78 391.36 28.86Q389.92 28.94 388.52 29.06Q387.12 29.18 386 29.34L386 29.34Q380.24 30.06 377.84 31.86Q375.44 33.66 375.44 37.02L375.44 37.02Q375.44 39.82 377.16 41.22Q378.88 42.62 381.68 42.62L381.68 42.62Q385.52 42.62 388.52 41.30Q391.52 39.98 394.40 37.82L394.40 37.82 zM395.12 47.82L394.32 43.42Q390.56 45.58 387.32 46.90Q384.08 48.22 380.32 48.22L380.32 48.22Q374.96 48.22 371.80 45.62Q368.64 43.02 368.64 37.02L368.64 37.02Q368.64 33.90 370.24 31.58Q371.84 29.26 374.44 27.70Q377.04 26.14 380.32 25.26Q383.60 24.38 387.04 24.14L387.04 24.14Q388.48 23.98 390.80 23.86Q393.12 23.74 394.40 23.66L394.40 23.66Q394.40 20.86 394.24 18.66Q394.08 16.46 393.28 14.90Q392.48 13.34 390.92 12.54Q389.36 11.74 386.48 11.74L386.48 11.74Q384.16 11.74 382 12.02Q379.84 12.30 378.16 12.62L378.16 12.62Q376.16 13.02 374.48 13.50L374.48 13.50L373.20 7.98Q375.20 7.50 377.52 7.10L377.52 7.10Q379.52 6.70 382.16 6.42Q384.80 6.14 387.84 6.14L387.84 6.14Q391.92 6.14 394.44 7.34Q396.96 8.54 398.36 10.58Q399.76 12.62 400.28 15.22Q400.80 17.82 400.80 20.70L400.80 20.70L400.80 39.90Q400.80 41.02 400.84 42.26Q400.88 43.50 401 44.70Q401.12 45.90 401.28 47.18L401.28 47.18L395.12 47.82" style="fill: rgb(255, 174, 201);" transform="translate(-268.080,-23.589)"></path></g><g class="path" style="opacity: 1; animation: 1.81818s linear -0.24s infinite normal forwards running animate-cm9q6dtukvw; transform-box: view-box; transform-origin: 155.12px 3.59px;"><path d="M434.96 7.82L433.84 13.50Q430.48 12.46 427.88 12.10Q425.28 11.74 423.12 11.74L423.12 11.74Q420.32 11.74 418.44 13.10Q416.56 14.46 416.56 16.62L416.56 16.62Q416.64 18.54 418.24 19.90Q419.84 21.26 421.96 22.34Q424.08 23.42 426.68 24.70Q429.28 25.98 431.56 27.58Q433.84 29.18 435.28 31.42Q436.72 33.66 436.80 36.78L436.80 36.78Q436.72 40.14 435.32 42.34Q433.92 44.54 431.72 45.86Q429.52 47.18 426.96 47.70Q424.40 48.22 422.16 48.22L422.16 48.22Q419.28 48.22 416.20 47.90Q413.12 47.58 409.60 46.54L409.60 46.54L410.80 40.78Q414.40 41.74 417.36 42.18Q420.32 42.62 422.24 42.62L422.24 42.62Q423.68 42.62 425.08 42.30Q426.48 41.98 427.60 41.38Q428.72 40.78 429.40 39.82Q430.08 38.86 430.08 37.66L430.08 37.66Q430 35.42 428.56 33.86Q427.12 32.30 424.84 31.06Q422.56 29.82 419.96 28.58Q417.36 27.34 415.08 25.70Q412.80 24.06 411.28 21.78Q409.76 19.50 409.76 16.14L409.76 16.14Q409.76 13.74 411 11.86Q412.24 9.98 414.20 8.74Q416.16 7.50 418.52 6.82Q420.88 6.14 423.12 6.14L423.12 6.14Q425.44 6.14 428.32 6.50Q431.20 6.86 434.96 7.82L434.96 7.82" style="fill: rgb(255, 124, 201);" transform="translate(-268.080,-23.589)"></path></g><g class="path" style="opacity: 1; animation: 1.81818s linear -0.16s infinite normal forwards running animate-cm9q6dtukvw; transform-box: view-box; transform-origin: 186.12px -2.01px;"><path d="M448.40-4.26L454.80-5.06L454.80 6.94L466.40 6.94L466.40 12.14L454.80 12.14L454.80 33.50Q454.80 36.14 454.92 37.90Q455.04 39.66 455.44 40.70Q455.84 41.74 456.56 42.18Q457.28 42.62 458.40 42.62L458.40 42.62Q461.44 42.54 465.44 40.38L465.44 40.38L467.36 45.26Q464.72 47.02 462.44 47.62Q460.16 48.22 457.92 48.22L457.92 48.22Q452.64 48.22 450.52 45.22Q448.40 42.22 448.40 35.26L448.40 35.26L448.40 12.14L441.04 12.14L441.04 6.94L448.40 6.94L448.40-4.26" style="fill: rgb(255, 64, 201);" transform="translate(-268.080,-23.589)"></path></g><g class="path" style="opacity: 1; animation: 1.81818s linear -0.08s infinite normal forwards running animate-cm9q6dtukvw; transform-box: view-box; transform-origin: 220.56px 13.15px;"><path d="M485.44 46.14L469.36 6.94L476.16 6.94L483.68 25.10Q484.80 27.74 485.72 30.38Q486.64 33.02 487.36 35.10L487.36 35.10Q488.24 37.58 488.88 39.90L488.88 39.90L488.96 39.90Q489.68 37.58 490.56 35.10L490.56 35.10Q491.28 33.02 492.24 30.38Q493.20 27.74 494.24 25.10L494.24 25.10L501.20 6.94L507.92 6.94L488.88 54.94Q487.76 57.90 485.96 60.06Q484.16 62.22 482.48 63.66L482.48 63.66Q480.48 65.34 478.32 66.54L478.32 66.54L475.20 61.02Q476.88 60.22 478.32 59.02L478.32 59.02Q479.60 57.98 480.88 56.42Q482.16 54.86 482.96 52.70L482.96 52.70L485.44 46.14" style="fill: rgb(255, 40, 201);" transform="translate(-268.080,-23.589)"></path></g><g class="path" style="opacity: 1; animation: 1.81818s linear 0s infinite normal forwards running animate-cm9q6dtukvw; transform-box: view-box; transform-origin: 258.8px 3.59px;"><path d="M536.32 37.82L536.32 28.70Q534.72 28.78 533.28 28.86Q531.84 28.94 530.44 29.06Q529.04 29.18 527.92 29.34L527.92 29.34Q522.16 30.06 519.76 31.86Q517.36 33.66 517.36 37.02L517.36 37.02Q517.36 39.82 519.08 41.22Q520.80 42.62 523.60 42.62L523.60 42.62Q527.44 42.62 530.44 41.30Q533.44 39.98 536.32 37.82L536.32 37.82 zM537.04 47.82L536.24 43.42Q532.48 45.58 529.24 46.90Q526 48.22 522.24 48.22L522.24 48.22Q516.88 48.22 513.72 45.62Q510.56 43.02 510.56 37.02L510.56 37.02Q510.56 33.90 512.16 31.58Q513.76 29.26 516.36 27.70Q518.96 26.14 522.24 25.26Q525.52 24.38 528.96 24.14L528.96 24.14Q530.40 23.98 532.72 23.86Q535.04 23.74 536.32 23.66L536.32 23.66Q536.32 20.86 536.16 18.66Q536 16.46 535.20 14.90Q534.40 13.34 532.84 12.54Q531.28 11.74 528.40 11.74L528.40 11.74Q526.08 11.74 523.92 12.02Q521.76 12.30 520.08 12.62L520.08 12.62Q518.08 13.02 516.40 13.50L516.40 13.50L515.12 7.98Q517.12 7.50 519.44 7.10L519.44 7.10Q521.44 6.70 524.08 6.42Q526.72 6.14 529.76 6.14L529.76 6.14Q533.84 6.14 536.36 7.34Q538.88 8.54 540.28 10.58Q541.68 12.62 542.20 15.22Q542.72 17.82 542.72 20.70L542.72 20.70L542.72 39.90Q542.72 41.02 542.76 42.26Q542.80 43.50 542.92 44.70Q543.04 45.90 543.20 47.18L543.20 47.18L537.04 47.82" style="fill: rgb(255, 0, 167);" transform="translate(-268.080,-23.589)"></path></g></g><text dy="0.35em" fill="#ffaec9" font-family="Actor" font-size="32">Filonova Nastya</text>
</g>
</g><style type="text/css" wfd-invisible="true">@keyframes animate-cm9q6dtukvw { 0.00% {animation-timing-function: cubic-bezier(0.33,0.00,0.67,0.00);transform: translate(0.00px,0.00px) rotate(0.00deg) scale(1.00, 1.00) skew(0deg, 0.00deg) ;opacity: 1.00;}48.00% {transform: translate(0.00px,0.00px) rotate(0.00deg) ;opacity: 1.00;}50.00% {animation-timing-function: cubic-bezier(0.33,0.00,0.67,0.00);transform: translate(0.00px,0.00px) rotate(0.00deg) ;opacity: 0.00;}100.00% {animation-timing-function: cubic-bezier(0.33,0.00,0.67,0.00);transform: translate(0.00px,0.00px) rotate(0.00deg) ;opacity: 0.00;} }</style></svg>